<?xml version="1.0" encoding="UTF-8"?>
<svg width="30px" height="23px" viewBox="0 0 30 23" version="1.1" xmlns="http://www.w3.org/2000/svg" xmlns:xlink="http://www.w3.org/1999/xlink">
    <!-- Generator: Sketch 53 (72520) - https://sketchapp.com -->
    <title>Shape</title>
    <desc>Created with Sketch.</desc>
    <g id="Homepage" stroke="none" stroke-width="1" fill="none" fill-rule="evenodd">
        <g id="homepage" transform="translate(-318.000000, -3538.000000)" fill="#02B3E4" fill-rule="nonzero">
            <g id="Group-18" transform="translate(0.000000, 3369.000000)">
                <g id="Group-21" transform="translate(225.000000, 160.000000)">
                    <g id="Group-26" transform="translate(88.000000, 0.000000)">
                        <path d="M27.5,29.1196658 L27.5,30.7222223 C27.5,31.4279194 26.9403559,32 26.25,32 C25.5596441,32 25,31.4279194 25,30.7222223 L25,30.0604783 C19.3792098,31.6278989 12.1555366,30.4108504 9.02391399,26.4093326 C8.84660094,26.1827659 8.75,25.9012581 8.75,25.6111111 L8.75,19.2222223 L8.87146106,19.2222223 L5.75245884,17.8388632 C4.74918039,17.3938829 4.74918039,15.9394506 5.75245884,15.4944703 L20.1572207,9.10558144 C20.4889731,8.95844058 20.8668063,8.96537983 21.1931739,9.12460767 L34.288412,15.5134965 C35.237196,15.9763881 35.237196,17.3569454 34.288412,17.8198369 L31.25,19.3022137 L31.25,25.6111111 C31.25,25.9012581 31.1533991,26.1827659 30.976086,26.4093326 C30.0975357,27.5319247 28.8969263,28.4353691 27.5,29.1196658 Z M25,22.3514561 L21.1931739,24.2087258 C20.8668063,24.3679536 20.4889731,24.3748929 20.1572207,24.227752 L11.25,20.2771665 L11.25,25.1371638 C14.0082196,28.1705067 20.4212994,28.9259588 25,27.4035199 L25,22.3514561 Z M27.5,21.1317591 L27.5,26.2053891 C27.9704681,25.8878679 28.3911638,25.5317928 28.75,25.1371638 L28.75,20.5219107 L27.5,21.1317591 Z M30.8479472,16.6666667 L20.6300884,11.6815902 L9.3904437,16.6666667 L20.6300884,21.6517433 L30.8479472,16.6666667 Z" id="Shape"></path>
                    </g>
                </g>
            </g>
        </g>
    </g>
</svg>