<?xml version="1.0" encoding="UTF-8"?>
<svg width="20px" height="27px" viewBox="0 0 20 27" version="1.1" xmlns="http://www.w3.org/2000/svg" xmlns:xlink="http://www.w3.org/1999/xlink">
    <!-- Generator: Sketch 53 (72520) - https://sketchapp.com -->
    <title>icon / object / star copy</title>
    <desc>Created with Sketch.</desc>
    <g id="Homepage" stroke="none" stroke-width="1" fill="none" fill-rule="evenodd">
        <g id="homepage" transform="translate(-711.000000, -3535.000000)" fill="#02B3E4" fill-rule="nonzero">
            <g id="Group-18" transform="translate(0.000000, 3369.000000)">
                <g id="Group-17" transform="translate(611.000000, 160.000000)">
                    <g id="icon-/-object-/-badge" transform="translate(90.000000, 0.000000)">
                        <path d="M25,22.5 C25,21.8096441 25.5596441,21.25 26.25,21.25 C26.9403559,21.25 27.5,21.8096441 27.5,22.5 L27.5,31.25 C27.5,32.1343308 26.6068421,32.7390281 25.7857617,32.4105959 L20,30.0962912 L14.2142383,32.4105959 C13.3931579,32.7390281 12.5,32.1343308 12.5,31.25 L12.5,22.5 C12.5,21.8096441 13.0596441,21.25 13.75,21.25 C14.4403559,21.25 15,21.8096441 15,22.5 L15,29.4037088 L19.5357617,27.5894041 C19.8337754,27.4701986 20.1662246,27.4701986 20.4642383,27.5894041 L25,29.4037088 L25,22.5 Z M20,26.25 C14.4771525,26.25 10,21.7728475 10,16.25 C10,10.7271525 14.4771525,6.25 20,6.25 C25.5228475,6.25 30,10.7271525 30,16.25 C30,21.7728475 25.5228475,26.25 20,26.25 Z M20,23.75 C24.1421356,23.75 27.5,20.3921356 27.5,16.25 C27.5,12.1078644 24.1421356,8.75 20,8.75 C15.8578644,8.75 12.5,12.1078644 12.5,16.25 C12.5,20.3921356 15.8578644,23.75 20,23.75 Z" id="🎨-icon-color"></path>
                    </g>
                </g>
            </g>
        </g>
    </g>
</svg>