<?xml version="1.0" encoding="UTF-8"?>
<svg width="30px" height="25px" viewBox="0 0 30 25" version="1.1" xmlns="http://www.w3.org/2000/svg" xmlns:xlink="http://www.w3.org/1999/xlink">
    <!-- Generator: Sketch 53 (72520) - https://sketchapp.com -->
    <title>icon / object / star copy 2</title>
    <desc>Created with Sketch.</desc>
    <g id="Homepage" stroke="none" stroke-width="1" fill="none" fill-rule="evenodd">
        <g id="homepage" transform="translate(-1110.000000, -3537.000000)" fill="#02B3E4" fill-rule="nonzero">
            <g id="Group-18" transform="translate(0.000000, 3369.000000)">
                <g id="Group-10" transform="translate(996.000000, 160.000000)">
                    <g id="icon-/-media-/-line-graph" transform="translate(109.000000, 0.000000)">
                        <path d="M7.47182229,32.5 L6.25,32.5 C5.90482203,32.5 5.59232203,32.360089 5.36611652,32.1338835 C5.13991102,31.907678 5,31.595178 5,31.25 L5,10 C5,9.30964406 5.55964406,8.75 6.25,8.75 C6.94035594,8.75 7.5,9.30964406 7.5,10 L7.5,28.2648414 L12.4678074,17.4912831 C12.801117,16.7684431 13.7161527,16.5371146 14.3529412,17.0147059 L22.1616566,22.8712424 L30.2390799,11.7647854 C30.6451277,11.2064696 31.4268989,11.0830321 31.9852146,11.4890799 C32.5435304,11.8951277 32.6669679,12.6768989 32.2609201,13.2352146 L23.4373907,25.3675676 C23.0271144,25.9316975 22.2345067,26.05088 21.6764706,25.6323529 L14.0903743,19.9427807 L9.45287868,30 L33.75,30 C34.4403559,30 35,30.5596441 35,31.25 C35,31.9403559 34.4403559,32.5 33.75,32.5 L7.52661609,32.5 C7.50837985,32.5004015 7.49011309,32.5004031 7.47182231,32.5 Z" id="🎨-icon-color"></path>
                    </g>
                </g>
            </g>
        </g>
    </g>
</svg>